<svg version="1.2" xmlns="http://www.w3.org/2000/svg" viewBox="0 0 80 80" width="80" height="80">
	<title>4-svg</title>
	<defs>
		<clipPath clipPathUnits="userSpaceOnUse" id="cp1">
			<path d="m0 0h334v80h-334z"/>
		</clipPath>
		<linearGradient id="g1" x1="13.9" y1="42.1" x2="63.1" y2="42.1" gradientUnits="userSpaceOnUse">
			<stop offset="0" stop-color="#25c7d9"/>
			<stop offset=".3" stop-color="#1fcfd5"/>
			<stop offset=".8" stop-color="#0ee6cc"/>
			<stop offset="1" stop-color="#05f2c7"/>
		</linearGradient>
		<linearGradient id="g2" x1="60.4" y1="9.8" x2="-2.2" y2="73.1" gradientUnits="userSpaceOnUse">
			<stop offset="0" stop-color="#4878d9"/>
			<stop offset="0" stop-color="#467bd9"/>
			<stop offset=".1" stop-color="#3893d9"/>
			<stop offset=".2" stop-color="#2da4d9"/>
			<stop offset=".4" stop-color="#27aed9"/>
			<stop offset=".5" stop-color="#25b1d9"/>
			<stop offset="1" stop-color="#05f2af"/>
		</linearGradient>
	</defs>
	<style>
		.s0 { fill: url(#g1) } 
		.s1 { fill: #ffffff } 
		.s2 { fill: #26b1da } 
		.s3 { fill: url(#g2) } 
		.s4 { fill: #25b1d9 } 
	</style>
	<g id="Clip-Path" clip-path="url(#cp1)">
		<g id="Layer">
			<path id="Layer" class="s0" d="m43.9 54.9q-0.1 0-0.2 0-0.1 0-0.2 0-0.1-0.1-0.2-0.1-0.1-0.1-0.2-0.1 0-0.1-0.1-0.1-0.1-0.1-0.1-0.2-0.1-0.1-0.1-0.1-0.1-0.1-0.1-0.2l-6.8-19.6-5.2 15q-0.1 0.1-0.2 0.3-0.1 0.1-0.2 0.2-0.1 0.1-0.3 0.2-0.2 0.1-0.3 0.1-0.2 0-0.5 0-0.2-0.1-0.4-0.2-0.2-0.1-0.3-0.3-0.2-0.1-0.2-0.4l-1.3-3.7h-0.7q-0.1 0-0.2 0-0.1 0-0.2-0.1-0.1 0-0.2 0-0.1-0.1-0.2-0.1-0.1-0.1-0.1-0.2-0.1 0-0.2-0.1 0-0.1-0.1-0.2 0-0.1 0-0.1l-0.5-1.3-0.4 1.1q-0.1 0.4-0.5 0.7-0.3 0.2-0.7 0.2h-7.8q-0.2 0-0.3 0-0.1 0-0.3 0-0.1-0.1-0.2-0.1-0.2-0.1-0.3-0.2-0.1-0.1-0.2-0.3-0.1-0.2-0.2-0.4 0-0.2 0-0.4 0-0.2 0.1-0.4 0.1-0.2 0.2-0.4 0.2-0.1 0.4-0.2 0.2-0.1 0.4-0.1 0.2-0.1 0.4 0h6.9l1.4-3.7q0.1-0.4 0.4-0.6 0.2-0.1 0.4-0.2 0.2 0 0.4 0 0.2 0 0.4 0 0.2 0.1 0.3 0.2 0.4 0.2 0.5 0.6l1.3 3.7h0.7q0.4 0 0.8 0.3 0.3 0.2 0.4 0.6l0.4 1.1 5.2-14.9q0.1-0.4 0.5-0.7 0.3-0.2 0.7-0.2 0.4 0 0.8 0.2 0.3 0.3 0.4 0.7l6.9 19.5 3.5-10.3q0.1-0.2 0.2-0.4 0.2-0.1 0.3-0.2 0.2-0.2 0.4-0.2 0.2-0.1 0.4-0.1 0.2 0 0.4 0.1 0.2 0 0.3 0.2 0.2 0.1 0.3 0.2 0.1 0.2 0.2 0.4l2 5.7 0.4-1.1q0-0.2 0.1-0.4 0.2-0.1 0.3-0.2 0.2-0.1 0.4-0.2 0.2-0.1 0.4-0.1h8.2q0.2 0 0.3 0 0.2 0 0.3 0.1 0.1 0 0.3 0.1 0.1 0 0.2 0.1 0.1 0.1 0.2 0.2 0.1 0.1 0.1 0.3 0.1 0.1 0.1 0.2 0 0.2 0 0.3 0 0.1 0 0.3 0 0.1-0.1 0.2 0 0.2-0.1 0.3-0.1 0.1-0.2 0.2-0.1 0.1-0.2 0.1-0.2 0.1-0.3 0.1-0.1 0.1-0.3 0.1-0.1 0-0.3 0h-7.3l-1.4 3.7q0 0.2-0.1 0.4-0.1 0.1-0.3 0.2-0.1 0.1-0.3 0.2-0.1 0.1-0.3 0.1-0.2 0-0.4 0-0.3-0.1-0.5-0.2-0.2-0.1-0.3-0.3-0.1-0.1-0.2-0.4l-2-5.6-3.6 10.3q-0.1 0.4-0.4 0.6-0.1 0-0.2 0.1-0.1 0-0.2 0.1-0.1 0-0.2 0-0.1 0-0.2 0z"/>
			<g id="Layer">
				<path id="Layer" class="s1" d="m3.3 74.2h15.9v-66.1h-15.9z"/>
			</g>
			<g id="Layer">
				<path id="Layer" class="s2" d="m36 63.8c7.3 0 13.2-2 17.6-6.1 4.4-4.1 6.6-9.6 6.6-16.5q0-10.4-6.6-16.5-6.6-6.1-17.6-6.1h-15.6v-9.4l15.6 1.2 22 6.9 11.3 16.3-2.3 19.7-14.6 14.5-20.5 5.3-11.5-2 6-7.3c0 0 9.6 0 9.6 0z"/>
			</g>
			<g id="Layer">
				<path id="Layer" fill-rule="evenodd" class="s3" d="m71.4 22q0 0 0 0 0 0 0 0zm0 0q0 0 0 0 1.3 2.1 2.3 4.5 1 2.3 1.6 4.7 0.7 2.4 1 4.9 0.3 2.5 0.2 5.1 0 10.9-5.1 19.1-1.3 2.1-2.9 4-1.5 1.8-3.3 3.4-1.9 1.7-3.9 3-2 1.3-4.2 2.4-2.5 1.2-5.1 2-2.6 0.9-5.2 1.5-2.7 0.6-5.4 0.8-2.8 0.3-5.5 0.2h-33.5v-72.9h33.5q11.9 0 21.2 4.5 2.2 1.1 4.2 2.4 2 1.4 3.8 3 1.9 1.6 3.4 3.5 1.6 1.8 2.9 3.9zm-18.8 35.7h0.1c4.3-4.1 6.5-9.6 6.5-16.5q0.1-10.4-6.5-16.5-6.6-6.1-17.7-6.1h-15.5v52.5l5.9-7.3h9.6c7.4 0 13.3-2 17.6-6.1q0 0 0 0z"/>
			</g>
			<path id="Layer" fill-rule="evenodd" class="s4" d="m102.8 20.8q0.8 0 1.5 0 0.8 0.1 1.5 0.3 0.7 0.1 1.4 0.4 0.7 0.2 1.4 0.5 0.6 0.3 1.2 0.7 0.5 0.3 1 0.8 0.5 0.4 0.9 0.9 0.4 0.5 0.8 1.1 0.4 0.6 0.6 1.2 0.3 0.6 0.5 1.3 0.2 0.6 0.3 1.3 0 0.7 0 1.4 0.1 0.7 0 1.4-0.1 0.7-0.3 1.3-0.2 0.7-0.5 1.3-0.2 0.7-0.6 1.2-0.3 0.6-0.8 1.1-0.4 0.5-0.9 1-0.5 0.4-1 0.8-0.6 0.3-1.2 0.6-0.7 0.3-1.4 0.6-0.7 0.2-1.4 0.3-0.7 0.2-1.5 0.3-0.7 0-1.5 0h-9v-19.8zm-0.3 16q0 0 0 0zm1.3 0q0.7-0.1 1.3-0.4 0.6-0.2 1.2-0.5 0.5-0.3 1-0.8 0.5-0.4 0.8-0.9 0.4-0.5 0.6-1.1 0.2-0.6 0.3-1.2 0.1-0.6 0.1-1.3 0-0.6-0.1-1.2-0.1-0.6-0.3-1.2-0.2-0.6-0.6-1.1-0.3-0.5-0.8-0.9-0.5-0.5-1-0.8-0.6-0.3-1.2-0.5-0.6-0.3-1.3-0.4-0.6 0-1.3 0h-4.2v12.3h4.2q0.7 0.1 1.3 0zm17.6 2.8q-0.6-0.3-1.2-0.7-0.6-0.4-1-0.9-0.5-0.4-1-0.9-0.4-0.6-0.8-1.2-0.6-1.2-1-2.5-0.4-1.3-0.4-2.7 0-1.4 0.4-2.7 0.4-1.4 1-2.6 0.4-0.5 0.8-1.1 0.5-0.5 1-1 0.4-0.4 1-0.8 0.6-0.4 1.2-0.7 1.3-0.7 2.7-1 1.4-0.3 2.9-0.4 1.4 0.1 2.9 0.4 1.4 0.3 2.7 1 0.6 0.3 1.1 0.7 0.6 0.4 1.1 0.9 0.5 0.5 0.9 1 0.4 0.5 0.8 1.1 0.4 0.6 0.6 1.2 0.3 0.6 0.5 1.3 0.2 0.7 0.2 1.3 0.1 0.7 0.1 1.4 0 0.7-0.1 1.4 0 0.6-0.2 1.3-0.2 0.6-0.5 1.3-0.2 0.6-0.6 1.2-0.4 0.6-0.8 1.1-0.4 0.5-0.9 1-0.5 0.5-1.1 0.9-0.5 0.4-1.1 0.7-1.3 0.7-2.7 1-1.5 0.3-2.9 0.3-1.5 0-2.9-0.3-1.4-0.3-2.7-1zm8.8-3.4q0 0 0 0zm0.7-0.4q0.3-0.3 0.6-0.5 0.2-0.3 0.5-0.6 0.2-0.4 0.4-0.7 0.2-0.4 0.4-0.8 0.1-0.4 0.2-0.8 0.1-0.4 0.2-0.9 0-0.4 0-0.8 0-0.4 0-0.9-0.1-0.4-0.2-0.8-0.1-0.4-0.2-0.8-0.2-0.4-0.4-0.8-0.2-0.3-0.4-0.7-0.3-0.3-0.5-0.6-0.3-0.3-0.6-0.5-0.4-0.2-0.7-0.4-0.8-0.4-1.6-0.6-0.8-0.2-1.6-0.2-0.9 0-1.7 0.2-0.8 0.2-1.5 0.6-0.4 0.2-0.7 0.4-0.3 0.2-0.6 0.5-0.3 0.3-0.5 0.6-0.3 0.4-0.5 0.7-0.4 0.8-0.6 1.6-0.2 0.8-0.2 1.7 0 0.9 0.2 1.7 0.2 0.8 0.6 1.6 0.2 0.3 0.5 0.7 0.2 0.3 0.5 0.6 0.3 0.2 0.6 0.5 0.3 0.2 0.7 0.4 0.7 0.4 1.5 0.6 0.9 0.2 1.7 0.2 0.8 0 1.6-0.2 0.9-0.2 1.6-0.6 0.3-0.2 0.7-0.4zm18.4-3.2h-3.2v8h-4.6v-19.8h4.6v8h3.3l5.3-8h4.9l-6.6 9.6 6.8 10.2h-5.3c0 0-5.2-8-5.2-8zm27.7-8.1h-6.4v16.1h-4.6v-16.1h-6.4v-3.7h17.4c0 0 0 3.7 0 3.7zm6.5 15.1q-0.6-0.3-1.1-0.7-0.6-0.4-1.1-0.9-0.5-0.4-0.9-0.9-0.4-0.6-0.8-1.2-0.7-1.2-1-2.5-0.4-1.3-0.4-2.7 0-1.4 0.4-2.7 0.3-1.4 1-2.6 0.4-0.5 0.8-1.1 0.4-0.5 0.9-1 0.5-0.4 1.1-0.8 0.5-0.4 1.1-0.7 1.4-0.7 2.8-1 1.4-0.3 2.9-0.3 1.4 0 2.8 0.3 1.5 0.3 2.8 1 0.6 0.3 1.1 0.7 0.6 0.4 1.1 0.9 0.5 0.4 0.9 0.9 0.4 0.6 0.8 1.2 0.3 0.5 0.6 1.2 0.3 0.6 0.5 1.3 0.1 0.6 0.2 1.3 0.1 0.7 0.1 1.4 0 0.7-0.1 1.4-0.1 0.7-0.2 1.3-0.2 0.7-0.5 1.3-0.3 0.7-0.6 1.2-0.4 0.6-0.8 1.2-0.4 0.5-0.9 0.9-0.5 0.5-1.1 0.9-0.5 0.4-1.1 0.7-1.3 0.7-2.8 1-1.4 0.3-2.8 0.3-1.5 0-2.9-0.3-1.4-0.3-2.8-1zm8.9-3.4q0 0 0 0zm0.6-0.4q0.4-0.3 0.6-0.5 0.3-0.3 0.6-0.6 0.2-0.4 0.4-0.7 0.4-0.8 0.6-1.6 0.2-0.8 0.2-1.7 0-0.9-0.2-1.7-0.2-0.8-0.6-1.6-0.2-0.3-0.4-0.7-0.3-0.3-0.5-0.6-0.3-0.2-0.6-0.5-0.4-0.2-0.7-0.4-0.8-0.4-1.6-0.6-0.8-0.2-1.6-0.2-0.9 0-1.7 0.2-0.8 0.2-1.5 0.6-0.4 0.2-0.7 0.4-0.3 0.2-0.6 0.5-0.3 0.3-0.5 0.6-0.3 0.4-0.5 0.7-0.4 0.8-0.6 1.6-0.2 0.8-0.2 1.7 0 0.9 0.2 1.7 0.2 0.8 0.6 1.6 0.2 0.3 0.5 0.7 0.2 0.3 0.5 0.6 0.3 0.2 0.6 0.5 0.3 0.2 0.7 0.4 0.7 0.4 1.5 0.6 0.8 0.2 1.7 0.2 0.8 0 1.6-0.2 0.8-0.2 1.6-0.6 0.3-0.2 0.6-0.4zm23.9-14.1q0.3 0.1 0.7 0.3 0.3 0.2 0.6 0.4 0.3 0.3 0.5 0.5 0.3 0.3 0.6 0.6 0.7 0.8 1.1 1.9 0.5 1 0.6 2.1 0 1.2-0.2 2.2-0.3 1.1-0.9 2.1-0.3 0.4-0.6 0.8-0.3 0.3-0.7 0.7-0.4 0.3-0.8 0.5-0.4 0.3-0.9 0.5c-1.5 0.6-3 0.8-4.6 0.8h-4v5.5h-4.7v-19.8h8.7q0.6 0 1.2 0 0.6 0.1 1.1 0.2 0.6 0.1 1.2 0.3 0.6 0.1 1.1 0.4zm-1.7 8.8q0.3-0.2 0.5-0.5 0.2-0.3 0.3-0.6 0.2-0.4 0.2-0.7 0.1-0.4 0.1-0.7 0-0.4-0.1-0.7 0-0.4-0.2-0.7-0.1-0.3-0.3-0.6-0.2-0.3-0.5-0.5-0.3-0.3-0.7-0.5-0.4-0.2-0.8-0.3-0.4-0.1-0.8-0.1-0.5-0.1-0.9 0h-3.7v6.8h3.7q0.4 0.1 0.9 0 0.4 0 0.8-0.1 0.4-0.2 0.8-0.4 0.4-0.1 0.7-0.4zm35.5-9.7v19.8h-4.6v-16h-9.1v16h-4.6v-19.8zm5 0h4.6v12.9l9.5-12.9h4.4v19.8h-4.6v-12.9l-9.5 12.9h-4.4c0 0 0-19.8 0-19.8zm38.8 3.7h-6.4v16.1h-4.6v-16.1h-6.4v-3.7h17.4c0 0 0 3.7 0 3.7zm18.4 12.4v3.7h-15.5v-19.8h15.1v3.7h-10.5v4.3h9.3v3.5h-9.3v4.6zm17-15.2q0.3 0.1 0.7 0.3 0.3 0.2 0.6 0.4 0.3 0.3 0.6 0.5 0.2 0.3 0.5 0.6 0.7 0.8 1.1 1.9 0.5 1 0.6 2.1 0 1.2-0.2 2.3-0.3 1-0.9 2-0.3 0.4-0.6 0.8-0.3 0.3-0.7 0.7-0.4 0.3-0.8 0.5-0.4 0.3-0.9 0.5-0.5 0.2-1.1 0.4-0.6 0.1-1.2 0.2-0.5 0.1-1.1 0.2-0.6 0-1.2 0h-4v5.5h-4.7v-19.8h8.7q0.6 0 1.2 0 0.6 0.1 1.1 0.2 0.6 0.1 1.2 0.3 0.6 0.1 1.1 0.4zm-1.7 8.8q0.3-0.2 0.5-0.5 0.2-0.3 0.3-0.6 0.2-0.4 0.2-0.7 0.1-0.4 0.1-0.7 0-0.2 0-0.4 0-0.1-0.1-0.3 0-0.2 0-0.4-0.1-0.1-0.2-0.3-0.2-0.7-0.8-1.1-0.3-0.3-0.7-0.5-0.4-0.2-0.8-0.3-0.4-0.1-0.8-0.1-0.4-0.1-0.9 0h-3.7v6.8h3.7q0.5 0.1 0.9 0 0.4 0 0.8-0.1 0.4-0.2 0.8-0.4 0.4-0.1 0.7-0.4zm-230.8 28.7h-1.6v3.2h-1.4v-7.6h1.4v3.2h1.7l2.5-3.2h1.5l-2.9 3.7 3.1 3.9h-1.7l-2.6-3.2zm13.8-4.4zm-3.8 8.4q-0.1 0.3-0.2 0.5-0.1 0.2-0.3 0.4-0.1 0.2-0.3 0.4-0.2 0.2-0.4 0.4c-0.4 0.3-1 0.5-1.6 0.4q-0.5 0-1.1-0.1-0.1-0.1-0.2-0.1-0.1-0.1-0.2-0.1-0.1-0.1-0.2-0.2-0.1-0.1-0.2-0.2l0.6-1q0.1 0.1 0.3 0.2 0.1 0.1 0.3 0.2 0.2 0.1 0.4 0.1 0.2 0.1 0.4 0.1 0.1 0 0.2 0 0.1-0.1 0.2-0.1 0.1 0 0.2-0.1 0.1 0 0.2-0.1 0.4-0.4 0.6-0.9l0.3-0.6-3.4-7.6h1.4l2.7 6.2 2.7-6.2h1.4zm12.7-8q0.2 0.1 0.4 0.2 0.2 0.2 0.4 0.3 0.2 0.2 0.4 0.4 0.1 0.2 0.2 0.4 0.3 0.5 0.4 1 0.1 0.5 0.1 1.1 0 0.5-0.1 1-0.1 0.5-0.4 1-0.1 0.2-0.2 0.4-0.2 0.2-0.4 0.4-0.2 0.2-0.4 0.3-0.2 0.2-0.4 0.3-0.2 0.1-0.4 0.2-0.3 0.1-0.5 0.2-0.3 0-0.6 0.1-0.2 0-0.5 0-0.2 0-0.4 0-0.2-0.1-0.4-0.1-0.2 0-0.3-0.1-0.2-0.1-0.4-0.1-0.2-0.1-0.3-0.2-0.2-0.1-0.4-0.2-0.1-0.1-0.2-0.3-0.2-0.1-0.3-0.3v4h-1.4v-10.5h1.4v1.3q0.1-0.2 0.2-0.3 0.1-0.2 0.3-0.3 0.1-0.1 0.3-0.2 0.1-0.1 0.3-0.2 0.2-0.1 0.4-0.2 0.2 0 0.4-0.1 0.2 0 0.4 0 0.2 0 0.4 0 0.2 0 0.5 0 0.3 0 0.5 0.1 0.3 0 0.5 0.1 0.3 0.1 0.5 0.3zm-0.8 5.7q0.6-0.3 1-0.9 0.1-0.4 0.2-0.7 0.1-0.4 0.1-0.7 0-0.4-0.1-0.8-0.1-0.3-0.2-0.6-0.1-0.2-0.2-0.3-0.1-0.2-0.2-0.3-0.2-0.1-0.3-0.2-0.1-0.1-0.3-0.2-0.1-0.1-0.3-0.1-0.1-0.1-0.3-0.1-0.2-0.1-0.4-0.1-0.1 0-0.3 0-0.2 0-0.3 0-0.2 0-0.4 0.1-0.2 0-0.3 0.1-0.2 0-0.3 0.1-0.6 0.4-1 1-0.3 0.6-0.3 1.4 0 0.7 0.3 1.4 0.4 0.6 1 0.9 0.6 0.4 1.3 0.4 0.7 0 1.3-0.4zm7.4 1.1q-0.3-0.1-0.5-0.3-0.2-0.1-0.4-0.3-0.2-0.2-0.3-0.4-0.2-0.2-0.3-0.4-0.3-0.5-0.4-1-0.1-0.5-0.1-1 0-0.6 0.1-1.1 0.1-0.5 0.4-0.9 0.1-0.3 0.3-0.5 0.1-0.2 0.3-0.3 0.2-0.2 0.4-0.4 0.2-0.1 0.5-0.2 0.2-0.2 0.5-0.3 0.2-0.1 0.5-0.1 0.2-0.1 0.5-0.1 0.3 0 0.6 0 0.2 0 0.5 0 0.2 0 0.4 0.1 0.3 0 0.5 0.1 0.2 0.1 0.4 0.2c0.6 0.3 1 0.7 1.3 1.2l-1 0.7q-0.1-0.1-0.2-0.2-0.1-0.2-0.2-0.3-0.1-0.1-0.2-0.2-0.1-0.1-0.3-0.1-0.1-0.1-0.3-0.2-0.1 0-0.3 0-0.1-0.1-0.3-0.1-0.1 0-0.3 0-0.2 0-0.3 0-0.2 0-0.4 0.1-0.2 0-0.3 0.1-0.2 0-0.3 0.1-0.2 0.1-0.3 0.2-0.2 0.1-0.3 0.2-0.1 0.1-0.2 0.3-0.1 0.1-0.2 0.3-0.1 0.1-0.2 0.3 0 0.2-0.1 0.4 0 0.1 0 0.3 0 0.2 0 0.4 0 0.7 0.3 1.4 0.3 0.6 1 0.9 0.6 0.4 1.3 0.4 0.7 0 1.2-0.3 0.6-0.3 0.9-0.8l1.1 0.6c-0.3 0.5-0.8 1-1.3 1.2q-0.2 0.2-0.4 0.2-0.3 0.1-0.5 0.2-0.2 0-0.5 0-0.2 0.1-0.5 0.1-0.2 0-0.5-0.1-0.3 0-0.6 0-0.3-0.1-0.5-0.2-0.3-0.1-0.5-0.2zm19.4-2.9c0.2 0.3 0.4 0.7 0.4 1.1 0 0.4-0.2 0.9-0.5 1.2q-0.1 0.1-0.3 0.2-0.1 0.2-0.3 0.3-0.1 0.1-0.3 0.2-0.2 0.1-0.4 0.1-0.2 0.1-0.4 0.2-0.3 0-0.5 0-0.2 0.1-0.5 0.1-0.2 0-0.4 0-0.2 0-0.5 0-0.2 0-0.4 0-0.2-0.1-0.4-0.1-0.2-0.1-0.4-0.1-0.2-0.1-0.4-0.1-0.2-0.1-0.4-0.2-0.2-0.1-0.4-0.2-0.1 0-0.3-0.2l0.4-1q0.6 0.4 1.3 0.5 0.7 0.2 1.4 0.2 0.2 0 0.4 0 0.3 0 0.5 0 0.2-0.1 0.3-0.1 0.2-0.1 0.4-0.2 0.2-0.1 0.3-0.2 0.1-0.1 0.2-0.2 0-0.1 0.1-0.2 0-0.2 0-0.3 0-0.2 0-0.3 0-0.1-0.1-0.2-0.1-0.1-0.2-0.2-0.1-0.1-0.2-0.2-0.1-0.1-0.3-0.1-0.1-0.1-0.3-0.1-0.2 0-0.3-0.1-0.2 0-0.4 0h-1.4v-1h1.3q0.2 0.1 0.4 0 0.1 0 0.3 0 0.1 0 0.3-0.1 0.1-0.1 0.3-0.1 0.1-0.1 0.2-0.2 0 0 0.1-0.1 0.1-0.1 0.1-0.3 0-0.1 0-0.2 0-0.1 0-0.2 0-0.2-0.1-0.3-0.1-0.1-0.2-0.2-0.1-0.1-0.2-0.1-0.2-0.1-0.4-0.2-0.1 0-0.3-0.1-0.2 0-0.4 0-0.2 0-0.4 0-0.3 0-0.6 0-0.3 0.1-0.6 0.1-0.3 0.1-0.6 0.2-0.3 0.1-0.6 0.3l-0.4-1.1q0.4-0.2 0.7-0.3 0.4-0.1 0.8-0.2 0.3-0.1 0.7-0.1 0.4-0.1 0.8-0.1 0.2 0 0.4 0 0.2 0 0.5 0.1 0.2 0 0.4 0.1 0.2 0 0.4 0.1 0.7 0.2 1.2 0.7c0.2 0.3 0.4 0.7 0.4 1.1 0 0.4-0.1 0.7-0.4 1q-0.1 0.1-0.2 0.2-0.1 0.1-0.3 0.2-0.1 0.1-0.2 0.2-0.2 0-0.3 0.1 0.7 0.2 1.2 0.7zm11.8 2.1v3h-1.3v-1.8h-6.4v1.8h-1.4v-3h0.4q0.8 0 1.1-1.1 0.3-1.3 0.3-2.8l0.1-2.6h6v6.5c0 0 1.2 0 1.2 0zm-6.2-1.4c-0.1 0.5-0.3 1-0.7 1.4h4.3v-5.2h-3.3l-0.1 1.4q0 0.3 0 0.6 0 0.3-0.1 0.6 0 0.3 0 0.6-0.1 0.3-0.1 0.6zm10.8 2.2q-0.2-0.1-0.5-0.3-0.2-0.1-0.3-0.3-0.2-0.2-0.4-0.4-0.1-0.2-0.3-0.4-0.2-0.5-0.3-1-0.2-0.5-0.2-1 0-0.6 0.2-1.1 0.1-0.5 0.3-0.9 0.2-0.3 0.3-0.5 0.2-0.2 0.4-0.3 0.1-0.2 0.3-0.4 0.3-0.1 0.5-0.2 0.5-0.3 1-0.4 0.5-0.1 1-0.1 0.6 0 1.1 0.1 0.5 0.1 1 0.4 0.2 0.1 0.4 0.2 0.2 0.2 0.4 0.4 0.2 0.1 0.4 0.3 0.1 0.2 0.2 0.5 0.3 0.4 0.4 0.9 0.2 0.5 0.2 1.1 0 0.5-0.2 1-0.1 0.5-0.4 1-0.1 0.2-0.2 0.4-0.2 0.2-0.4 0.4-0.2 0.2-0.4 0.3-0.2 0.2-0.4 0.3-0.5 0.2-1 0.4-0.5 0.1-1.1 0.1-0.5 0-1-0.1-0.5-0.2-1-0.4zm3.4-1.1q0.6-0.3 0.9-0.9 0.2-0.4 0.3-0.7 0-0.4 0-0.7 0-0.4 0-0.8-0.1-0.3-0.3-0.6-0.1-0.2-0.2-0.3-0.1-0.2-0.2-0.3-0.1-0.1-0.2-0.2-0.2-0.1-0.3-0.2-0.3-0.2-0.7-0.2-0.3-0.1-0.6-0.1-0.4 0-0.7 0.1-0.4 0-0.7 0.2-0.6 0.4-0.9 1-0.2 0.3-0.3 0.6-0.1 0.4-0.1 0.8 0 0.3 0.1 0.7 0.1 0.3 0.3 0.7 0.3 0.6 0.9 0.9 0.3 0.2 0.7 0.3 0.3 0.1 0.7 0.1 0.3 0 0.6-0.1 0.4-0.1 0.7-0.3zm12.2-5.7c0.6 0.3 1.1 0.7 1.4 1.3q0.3 0.5 0.4 1 0.2 0.5 0.2 1.1 0 0.5-0.2 1-0.1 0.5-0.4 1-0.1 0.2-0.2 0.4-0.2 0.2-0.4 0.4-0.1 0.2-0.3 0.3-0.2 0.2-0.5 0.3-0.2 0.1-0.4 0.2-0.3 0.1-0.5 0.2-0.3 0-0.5 0.1-0.3 0-0.6 0-0.2 0-0.4 0-0.2-0.1-0.3-0.1-0.2 0-0.4-0.1-0.2-0.1-0.4-0.1-0.2-0.1-0.3-0.2-0.2-0.1-0.3-0.2-0.2-0.1-0.3-0.3-0.1-0.1-0.3-0.3v4h-1.4v-10.5h1.4v1.3q0.4-0.7 1.2-1 0.1-0.1 0.3-0.2 0.2 0 0.4-0.1 0.2 0 0.4 0 0.2 0 0.4 0 0.3 0 0.5 0 0.3 0 0.6 0.1 0.2 0 0.4 0.1 0.3 0.1 0.5 0.3zm-0.8 5.7q0.6-0.3 1-0.9 0.1-0.4 0.2-0.7 0.1-0.4 0.1-0.7 0-0.4-0.1-0.8-0.1-0.3-0.2-0.6-0.1-0.2-0.2-0.3-0.1-0.2-0.3-0.3-0.1-0.1-0.2-0.2-0.1-0.1-0.3-0.2-0.1-0.1-0.3-0.1-0.2-0.1-0.3-0.1-0.2-0.1-0.4-0.1-0.2 0-0.3 0-0.2 0-0.4 0-0.1 0-0.3 0.1-0.2 0-0.3 0.1-0.2 0-0.3 0.1-0.2 0.1-0.3 0.2-0.2 0.1-0.3 0.2-0.1 0.1-0.2 0.3-0.1 0.1-0.2 0.3-0.1 0.1-0.1 0.3-0.1 0.2-0.1 0.3-0.1 0.2-0.1 0.4 0 0.2 0 0.4 0 0.7 0.3 1.4 0.3 0.6 1 0.9 0.3 0.2 0.6 0.3 0.3 0.1 0.7 0.1 0.3 0 0.7-0.1 0.3-0.1 0.6-0.3zm7.5 1.1q-0.2-0.1-0.4-0.3-0.2-0.1-0.4-0.3-0.2-0.2-0.4-0.4-0.1-0.2-0.2-0.4-0.3-0.5-0.4-1-0.2-0.5-0.2-1 0-0.6 0.2-1.1 0.1-0.5 0.4-0.9 0.1-0.3 0.2-0.5 0.2-0.2 0.4-0.3 0.2-0.2 0.4-0.4 0.2-0.1 0.4-0.2 0.5-0.3 1-0.4 0.5-0.1 1.1-0.1 0.5 0 1 0.1 0.6 0.1 1 0.4c0.6 0.3 1.1 0.8 1.5 1.4q0.2 0.4 0.3 0.9 0.2 0.5 0.2 1.1 0 0.5-0.2 1-0.1 0.5-0.3 1-0.2 0.2-0.3 0.4-0.2 0.2-0.4 0.4-0.1 0.2-0.3 0.3-0.2 0.2-0.5 0.3-0.4 0.2-1 0.4-0.5 0.1-1 0.1-0.6 0-1.1-0.1-0.5-0.2-1-0.4zm3.4-1.1q0.6-0.3 0.9-0.9 0.2-0.4 0.3-0.7 0.1-0.4 0.1-0.7 0-0.4-0.1-0.8-0.1-0.3-0.3-0.6-0.1-0.2-0.2-0.3-0.1-0.2-0.2-0.3-0.1-0.1-0.2-0.2-0.2-0.1-0.3-0.2-0.3-0.2-0.6-0.2-0.4-0.1-0.7-0.1-0.4 0-0.7 0.1-0.4 0-0.7 0.2-0.1 0.1-0.3 0.2-0.1 0.1-0.2 0.2-0.1 0.1-0.2 0.3-0.1 0.1-0.2 0.3-0.2 0.3-0.3 0.6 0 0.4 0 0.8 0 0.3 0 0.7 0.1 0.3 0.3 0.7 0.3 0.6 0.9 0.9 0.3 0.2 0.7 0.3 0.3 0.1 0.7 0.1 0.3 0 0.7-0.1 0.3-0.1 0.6-0.3zm12.9-0.6q0 0.2 0 0.4-0.1 0.3-0.2 0.5-0.1 0.2-0.2 0.3-0.2 0.2-0.4 0.3-0.2 0.2-0.5 0.3-0.3 0.1-0.6 0.2-0.3 0.1-0.6 0.1-0.3 0-0.6 0h-3.7v-7.7h3.6q0.3 0 0.6 0 0.3 0.1 0.5 0.1 0.3 0.1 0.6 0.2 0.2 0.1 0.5 0.3 0.1 0.1 0.3 0.2 0.1 0.2 0.2 0.4 0.1 0.2 0.2 0.4 0 0.2 0 0.4 0 0.6-0.3 1.1-0.1 0.1-0.2 0.2-0.1 0.1-0.2 0.1-0.1 0.1-0.2 0.2-0.2 0.1-0.3 0.1c0.4 0.1 0.8 0.3 1.1 0.7 0.3 0.3 0.4 0.7 0.4 1.2zm-5.4-2.3h2.1q0.7 0.1 1.2-0.3 0.1 0 0.2-0.1 0.1-0.1 0.1-0.2 0.1-0.1 0.1-0.3 0-0.1 0-0.2 0-1.1-1.6-1.1h-2.1c0 0 0 2.2 0 2.2zm3.6 3.1q0.1-0.1 0.2-0.2 0-0.1 0.1-0.2 0.1-0.1 0.1-0.2 0-0.2 0-0.3 0-0.1 0-0.2 0-0.2-0.1-0.3 0-0.1-0.1-0.2-0.1-0.1-0.2-0.1-0.1-0.1-0.3-0.2-0.2 0-0.3-0.1-0.2 0-0.3 0-0.2 0-0.4 0h-2.3v2.3h2.2q0.2 0 0.4 0 0.2-0.1 0.3-0.1 0.2 0 0.4-0.1 0.1-0.1 0.3-0.1zm6.7 0.9q-0.2-0.1-0.4-0.3-0.2-0.1-0.4-0.3-0.2-0.2-0.3-0.4-0.2-0.2-0.3-0.4-0.3-0.5-0.4-1-0.1-0.5-0.1-1 0-0.6 0.1-1.1 0.1-0.5 0.4-0.9 0.1-0.3 0.3-0.5 0.1-0.2 0.3-0.3 0.2-0.2 0.4-0.4 0.2-0.1 0.4-0.2 0.5-0.3 1-0.4 0.6-0.1 1.1-0.1 0.5 0 1.1 0.1 0.5 0.1 1 0.4c0.6 0.3 1.1 0.8 1.4 1.4q0.3 0.4 0.4 0.9 0.1 0.5 0.1 1.1 0 0.5-0.1 1-0.1 0.5-0.4 1-0.1 0.2-0.3 0.4-0.1 0.2-0.3 0.4-0.2 0.2-0.4 0.3-0.2 0.2-0.4 0.3-0.5 0.2-1 0.4-0.6 0.1-1.1 0.1-0.5 0-1.1-0.1-0.5-0.2-1-0.4zm3.4-1.1q0.6-0.3 1-0.9 0.1-0.4 0.2-0.7 0.1-0.4 0.1-0.7 0-0.4-0.1-0.8-0.1-0.3-0.2-0.6-0.1-0.2-0.2-0.3-0.1-0.2-0.2-0.3-0.1-0.1-0.3-0.2-0.1-0.1-0.3-0.2-0.3-0.2-0.6-0.2-0.3-0.1-0.7-0.1-0.3 0-0.7 0.1-0.3 0-0.6 0.2-0.2 0.1-0.3 0.2-0.1 0.1-0.3 0.2-0.1 0.1-0.2 0.3-0.1 0.1-0.2 0.3-0.1 0.3-0.2 0.6-0.1 0.4-0.1 0.8 0 0.3 0.1 0.7 0.1 0.3 0.2 0.7 0.4 0.6 1 0.9 0.3 0.2 0.6 0.3 0.4 0.1 0.7 0.1 0.4 0 0.7-0.1 0.3-0.1 0.6-0.3zm7.6-6.2v5.6l4.7-5.6h1.3v7.7h-1.4v-5.6l-4.7 5.6h-1.3v-7.7zm0.5-1.5q-0.2-0.1-0.3-0.3-0.1-0.2-0.2-0.3-0.1-0.2-0.1-0.4 0-0.2 0-0.5h0.9q0 0.2 0.1 0.3 0 0.1 0 0.2 0.1 0.1 0.2 0.2 0 0.1 0.1 0.2c0.3 0.2 0.6 0.3 1 0.3 0.3 0 0.7-0.1 0.9-0.3q0.1-0.1 0.2-0.2 0.1-0.1 0.1-0.2 0-0.1 0.1-0.2 0-0.1 0-0.3h1q0 0.3 0 0.5-0.1 0.2-0.2 0.4 0 0.1-0.2 0.3-0.1 0.2-0.2 0.3c-0.5 0.4-1.1 0.6-1.7 0.5q-0.3 0.1-0.5 0-0.2 0-0.4-0.1-0.2 0-0.4-0.1-0.2-0.1-0.4-0.3zm22.1 6h-1.5v3.2h-1.4v-3.2h-1.5l-2.1 3.2h-1.7l2.6-4-2.4-3.7h1.5l2.1 3.3h1.5v-3.3h1.4v3.3h1.5l2.1-3.3h1.5l-2.4 3.8 2.6 3.9h-1.6zm6.7-4.4h1.4v5.5l4.8-5.5h1.2v7.6h-1.4v-5.6l-4.7 5.6h-1.3zm16.9 4.3c0.3 0.3 0.4 0.7 0.4 1.2 0 0.4-0.1 0.8-0.4 1.2q-0.6 0.6-1.3 0.8-0.3 0.1-0.5 0.1-0.2 0.1-0.4 0.1-0.3 0.1-0.5 0.1-0.2 0-0.5 0-0.2 0-0.4 0-0.2 0-0.4-0.1-0.2 0-0.5 0-0.2-0.1-0.4-0.1-0.2-0.1-0.4-0.1-0.2-0.1-0.3-0.2-0.2-0.1-0.4-0.2-0.2-0.1-0.3-0.2l0.4-1q0.6 0.3 1.3 0.5 0.7 0.2 1.4 0.2 0.2 0 0.4 0 0.2 0 0.4-0.1 0.2 0 0.4-0.1 0.2 0 0.4-0.1 0.1-0.1 0.2-0.2 0.1-0.1 0.2-0.2 0.1-0.1 0.1-0.3 0.1-0.1 0.1-0.2 0-0.2-0.1-0.3 0-0.1 0-0.2-0.1-0.1-0.2-0.2-0.1-0.1-0.2-0.2-0.2-0.1-0.3-0.1-0.2-0.1-0.4-0.1-0.1-0.1-0.3-0.1-0.2 0-0.3 0h-1.5v-1h1.4q0.6 0.1 1.2-0.2 0.1-0.1 0.2-0.2 0.1-0.1 0.1-0.2 0.1-0.1 0.1-0.2 0-0.1 0-0.2 0.1-0.1 0-0.3 0-0.1-0.1-0.2-0.1-0.1-0.2-0.2-0.1-0.1-0.2-0.1-0.1-0.1-0.3-0.2-0.2 0-0.4-0.1-0.2 0-0.4 0-0.1 0-0.3 0-0.3 0-0.7 0-0.3 0.1-0.6 0.1-0.3 0.1-0.6 0.2-0.3 0.1-0.6 0.3l-0.4-1.1q0.4-0.2 0.8-0.3 0.3-0.1 0.7-0.2 0.4-0.1 0.7-0.2 0.4 0 0.8 0 0.2 0 0.4 0 0.3 0 0.5 0.1 0.2 0 0.4 0 0.2 0.1 0.4 0.2 0.7 0.2 1.2 0.7c0.3 0.3 0.4 0.7 0.4 1.1 0 0.3-0.1 0.7-0.4 1q-0.1 0.1-0.2 0.2-0.1 0.1-0.2 0.2-0.2 0.1-0.3 0.2-0.1 0-0.3 0.1 0.7 0.1 1.2 0.6zm4-4.3h1.4v3.3h4.4v-3.3h1.4v7.7h-1.4v-3.2h-4.4v3.2h-1.4c0 0 0-7.7 0-7.7zm11.4 0h1.4v5.6l4.8-5.6h1.2v7.7h-1.4v-5.6l-4.7 5.6h-1.3z"/>
		</g>
	</g>
</svg>