<?xml version="1.0" standalone="no"?><!DOCTYPE svg PUBLIC "-//W3C//DTD SVG 1.1//EN" "http://www.w3.org/Graphics/SVG/1.1/DTD/svg11.dtd"><svg t="1676207312435" class="icon" viewBox="0 0 1024 1024" version="1.1" xmlns="http://www.w3.org/2000/svg" p-id="6204" xmlns:xlink="http://www.w3.org/1999/xlink" width="32" height="32"><path d="M213.067 255.723013c-70.482563 0-127.8402-57.357636-127.8402-127.8402s57.357636-127.8402 127.8402-127.8402 127.8402 57.357636 127.840199 127.8402-57.315023 127.8402-127.840199 127.8402z m0-213.067c-47.00258 0-85.2268 38.22422-85.2268 85.2268s38.22422 85.2268 85.2268 85.2268 85.2268-38.22422 85.226799-85.2268-38.22422-85.2268-85.226799-85.2268zM703.121099 1022.764211a21.3067 21.3067 0 0 1-21.3067-21.3067v-404.827299h-170.4536a11.803912 11.803912 0 0 1-1.661923-0.12784H419.315855A255.296879 255.296879 0 0 1 298.293799 566.119018v51.817894h43.550895a212.640866 212.640866 0 0 1 195.808573 129.246442l68.138826 156.732085a85.397253 85.397253 0 0 1-78.238202 118.848772 85.09896 85.09896 0 0 1-78.408656-51.690054L381.006409 814.342072a42.6134 42.6134 0 0 0-39.204328-25.908947h-240.339576L41.846359 1007.08248a21.391927 21.391927 0 0 1-26.164628 14.957304 21.391927 21.391927 0 0 1-14.91469-26.164628l62.726925-229.941906L0.298294 365.580358A21.221473 21.221473 0 0 1 21.3067 340.949813c10.39767 0 19.43171 7.755639 21.05102 17.982854l61.065002 386.844445h35.837869a84.843279 84.843279 0 0 1-11.420391-42.6134v-340.907199a85.312027 85.312027 0 0 1 149.956554-55.482647l76.70412 89.48814c16.193092 18.92035 39.800916 29.744153 64.687141 29.744153H532.667499a85.312027 85.312027 0 0 1 73.721182 127.96804H980.108198a21.3067 21.3067 0 0 1 0 42.6134h-255.680399v404.827299a21.349313 21.349313 0 0 1-21.3067 21.349313zM213.067 319.643113c-23.479983 0-42.6134 19.133417-42.6134 42.6134v340.907199c0 23.522597 19.133417 42.6134 42.6134 42.6134h128.777694c34.133333 0 64.857595 20.283978 78.323429 51.647441l68.138827 156.732085a42.6134 42.6134 0 1 0 78.408655-33.366293L498.576779 764.058261a170.283146 170.283146 0 0 0-156.732085-103.507949H276.987099a21.3067 21.3067 0 0 1-21.306699-21.3067v-112.073242a21.221473 21.221473 0 0 1 34.21856-16.960133 213.834041 213.834041 0 0 0 129.118601 43.678735H532.667499a42.656013 42.656013 0 0 0 0-85.2268H419.273242a127.754973 127.754973 0 0 1-97.158552-44.658843l-76.70412-89.48814A42.442946 42.442946 0 0 0 213.067 319.643113z" p-id="6205" fill="#65a30d"></path><path d="M681.814399 511.403412a21.3067 21.3067 0 0 1 0-42.6134h204.544319a21.391927 21.391927 0 0 0 19.985685-14.019808L981.429213 248.436122a21.3067 21.3067 0 0 1 40.013983 14.573782l-75.042197 206.291469c-9.119268 25.141906-33.238452 42.059426-59.999667 42.102039H681.814399z" p-id="6206" fill="#65a30d"></path><path d="M724.427799 285.509779m-31.96005 0a31.96005 31.96005 0 1 0 63.9201 0 31.96005 31.96005 0 1 0-63.9201 0Z" p-id="6207" fill="#65a30d"></path><path d="M894.881398 102.953974a21.519767 21.519767 0 0 1-13.380607-4.730087C837.481149 62.599084 781.742821 42.996921 724.427799 42.996921s-113.05335 19.602164-157.072993 55.184352a21.221473 21.221473 0 1 1-26.761215-33.110611C592.113192 23.394757 657.396921 0.426134 724.427799 0.426134s132.314607 22.968623 183.834207 64.644528a21.093633 21.093633 0 0 1 3.153391 29.95722 21.05102 21.05102 0 0 1-16.533999 7.926092zM823.844861 205.865335a21.3067 21.3067 0 0 1-13.380608-4.730087c-24.076571-19.516937-54.630379-30.212901-86.036454-30.212901s-61.91727 10.738577-86.036455 30.212901a21.349313 21.349313 0 0 1-26.803828-33.153226c31.619143-25.56804 71.675739-39.630462 112.797669-39.630461s81.178527 14.062422 112.79767 39.630461a21.093633 21.093633 0 0 1 3.153391 29.957221 20.880566 20.880566 0 0 1-16.491385 7.926092z" p-id="6208" fill="#65a30d"></path></svg>